<svg role="img" viewBox="0 0 24 24" width="24" height="24" fill="#000000">
  <path fill-rule="evenodd" clip-rule="evenodd" d="M19.9441 19.9445H16.6795V14.384C16.6795 12.8595 16.1002 12.0075 14.8935 12.0075C13.5808 12.0075 12.895 12.8941 12.895 14.384V19.9445H9.74878V9.35186H12.895V10.7787C12.895 10.7787 13.841 9.02824 16.0888 9.02824C18.3356 9.02824 19.9441 10.4003 19.9441 13.2379V19.9445ZM5.99534 7.96485C4.92366 7.96485 4.05526 7.08963 4.05526 6.01021C4.05526 4.93079 4.92366 4.05556 5.99534 4.05556C7.06701 4.05556 7.9349 4.93079 7.9349 6.01021C7.9349 7.08963 7.06701 7.96485 5.99534 7.96485ZM4.37076 19.9445H7.65146V9.35186H4.37076V19.9445ZM3.44444 23H20.5556C21.9056 23 23 21.9056 23 20.5556V3.44444C23 2.09441 21.9056 1 20.5556 1H3.44444C2.09441 1 1 2.09441 1 3.44444V20.5556C1 21.9056 2.09441 23 3.44444 23Z"/>
</svg>